<svg xmlns="http://www.w3.org/2000/svg" version="1.1" xmlns:xlink="http://www.w3.org/1999/xlink" width="512" height="512" x="0" y="0" viewBox="0 0 32 32" style="enable-background:new 0 0 512 512" xml:space="preserve"><g><path d="M30.164 12.724a1.002 1.002 0 0 0-.808-.681l-8.609-1.25-3.85-7.802c-.337-.683-1.457-.683-1.794 0l-3.85 7.802-8.609 1.25a1.002 1.002 0 0 0-.555 1.706l6.229 6.072-1.471 8.576a1 1 0 0 0 1.451 1.054L16 25.403l7.701 4.048a.997.997 0 0 0 1.053-.076 1 1 0 0 0 .398-.978l-1.471-8.576 6.229-6.072a1 1 0 0 0 .254-1.025zm-8.256 6.033a1.003 1.003 0 0 0-.288.885l1.217 7.097-6.373-3.35a.985.985 0 0 0-.929-.001l-6.373 3.35 1.217-7.097a1.001 1.001 0 0 0-.288-.885l-5.155-5.025 7.124-1.035a1 1 0 0 0 .753-.547L16 5.693l3.186 6.456a1 1 0 0 0 .753.547l7.124 1.035z" fill="#ffffff" opacity="1" data-original="#000000"></path></g></svg>